<?xml version="1.0" standalone="no"?>
<!DOCTYPE svg PUBLIC "-//W3C//DTD SVG 20010904//EN"
 "http://www.w3.org/TR/2001/REC-SVG-20010904/DTD/svg10.dtd">
<svg version="1.0" xmlns="http://www.w3.org/2000/svg"
 width="512.000000pt" height="512.000000pt" viewBox="0 0 512.000000 512.000000"
 preserveAspectRatio="xMidYMid meet">
<metadata>
Created by potrace 1.14, written by Peter Selinger 2001-2017
</metadata>
<g transform="translate(0.000000,512.000000) scale(0.100000,-0.100000)"
fill="#000000" stroke="none">
<path d="M3290 4450 c-14 -6 -35 -25 -45 -43 -18 -30 -20 -54 -20 -393 0 -399
0 -395 66 -429 55 -29 142 9 155 68 3 17 6 162 6 321 -1 450 2 407 -29 445
-31 36 -87 49 -133 31z"/>
<path d="M2658 4374 c-33 -17 -56 -58 -56 -99 1 -32 9 -54 87 -218 28 -60 51
-110 51 -112 0 -2 19 -43 41 -92 23 -48 56 -120 74 -159 48 -103 110 -143 172
-111 77 40 87 101 34 212 -54 113 -74 160 -73 168 1 4 -2 7 -6 7 -4 0 -14 17
-21 37 -13 35 -60 138 -132 288 -42 88 -103 116 -171 79z"/>
<path d="M3907 4374 c-31 -17 -52 -58 -231 -450 -53 -117 -96 -224 -96 -239 0
-84 92 -137 169 -96 25 14 52 53 79 116 11 28 40 91 63 140 24 50 43 92 44 95
2 6 31 70 78 170 57 122 64 144 61 175 -5 45 -23 72 -59 90 -41 19 -72 19
-108 -1z"/>
<path d="M1497 3633 c-1 -1 -38 -3 -81 -4 -44 -1 -98 -6 -120 -10 -23 -4 -60
-10 -81 -13 -55 -7 -184 -42 -231 -63 -21 -9 -46 -18 -54 -19 -33 -6 -251
-125 -278 -151 -7 -7 -16 -13 -20 -13 -4 0 -21 -13 -39 -28 -18 -15 -53 -45
-79 -67 -27 -22 -70 -62 -97 -90 -58 -59 -187 -227 -187 -243 0 -7 -5 -12 -11
-12 -5 0 -7 -4 -4 -10 3 -5 2 -10 -3 -10 -14 0 -98 -178 -131 -276 -56 -166
-74 -282 -75 -464 0 -91 3 -185 7 -210 16 -100 19 -117 34 -170 29 -107 66
-206 103 -280 38 -77 92 -171 110 -193 6 -7 30 -39 55 -72 25 -33 76 -91 113
-129 69 -71 222 -196 240 -196 5 0 15 -7 23 -16 28 -34 315 -163 398 -179 9
-2 34 -8 56 -13 159 -43 442 -51 608 -18 15 4 38 8 52 10 138 24 361 120 510
219 131 87 269 220 366 352 32 44 63 86 69 93 6 6 8 12 5 12 -4 0 3 13 15 29
11 17 27 45 35 63 9 18 19 40 24 48 15 24 38 81 56 137 17 52 19 54 92 88 41
19 76 35 78 35 2 0 32 13 67 29 35 16 117 52 183 81 66 28 143 62 170 75 28
13 84 37 125 55 41 18 108 47 148 66 40 19 74 34 76 34 2 0 30 12 62 27 33 15
61 27 64 28 15 5 204 88 285 125 22 10 83 37 135 60 52 23 114 50 137 61 23
10 44 19 47 19 3 0 38 16 78 35 40 20 74 36 76 35 3 0 43 17 205 89 76 33 140
61 142 61 8 0 43 37 54 58 6 12 10 167 11 426 0 442 0 446 -56 483 -23 15 -77
16 -558 16 -433 0 -537 -3 -558 -14 -23 -12 -96 -107 -210 -272 -18 -27 -38
-54 -43 -60 -6 -7 -18 -24 -28 -39 l-17 -28 -338 0 -337 0 -60 86 c-33 48 -64
92 -70 98 -12 13 -35 47 -94 134 -24 34 -57 70 -74 79 -28 14 -99 16 -605 17
-316 0 -574 0 -575 -1z m1084 -253 c11 -14 27 -33 35 -43 7 -9 14 -20 14 -23
0 -4 19 -32 43 -64 23 -31 49 -67 57 -79 60 -89 122 -162 143 -170 24 -9 789
-13 848 -5 20 3 45 13 55 23 26 25 59 64 62 74 1 4 19 31 40 60 21 28 54 74
73 102 39 56 38 56 80 110 l31 40 414 0 414 0 0 -55 c1 -92 1 -381 0 -453 l0
-68 -67 -31 c-38 -18 -70 -33 -73 -33 -22 -4 -80 -31 -80 -37 0 -4 -7 -8 -15
-8 -8 0 -45 -14 -82 -31 -55 -25 -299 -133 -438 -194 -16 -7 -52 -23 -80 -35
-27 -13 -104 -46 -170 -75 -66 -29 -140 -62 -165 -73 -25 -12 -124 -56 -220
-98 -96 -42 -191 -83 -210 -92 -19 -9 -37 -16 -40 -17 -3 -1 -32 -14 -65 -29
-33 -15 -87 -39 -120 -53 -33 -14 -93 -41 -133 -59 -41 -19 -75 -34 -77 -34
-3 0 -29 -11 -59 -25 -61 -28 -88 -59 -107 -125 -7 -25 -14 -47 -15 -50 -1 -3
-5 -16 -10 -30 -13 -44 -116 -240 -125 -240 -5 0 -9 -5 -9 -11 0 -28 -145
-192 -239 -269 -24 -19 -48 -40 -54 -46 -45 -40 -290 -168 -345 -179 -9 -2
-28 -8 -42 -13 -25 -9 -169 -41 -220 -48 -38 -5 -241 -5 -270 0 -14 2 -47 7
-75 11 -121 16 -327 91 -440 159 -158 96 -257 189 -403 381 -28 36 -112 193
-118 220 -1 6 -9 26 -18 46 -18 42 -51 172 -63 244 -4 28 -7 118 -7 200 1 156
6 202 29 290 28 112 90 263 134 330 14 22 32 52 39 66 8 15 25 38 38 52 13 14
24 29 24 33 0 8 182 189 218 217 12 9 26 17 31 17 5 0 12 7 15 16 3 8 10 13
15 10 5 -4 11 -3 13 2 1 4 26 22 53 39 87 55 216 108 335 138 87 23 90 23 173
30 39 4 73 7 74 8 1 1 257 2 568 2 l567 0 19 -25z"/>
<path d="M1417 2934 c-1 -1 -22 -5 -47 -8 -100 -12 -236 -65 -330 -129 -67
-46 -166 -146 -205 -208 -19 -30 -39 -59 -45 -66 -5 -7 -10 -19 -10 -28 0 -8
-5 -15 -12 -15 -6 0 -9 -3 -5 -6 3 -4 -1 -20 -9 -36 -9 -17 -17 -37 -19 -47
-1 -9 -8 -35 -14 -59 -16 -57 -21 -99 -22 -180 0 -70 13 -197 21 -197 1 0 4
-11 6 -25 3 -13 9 -29 14 -34 6 -6 10 -17 10 -26 0 -65 140 -256 256 -350 150
-122 391 -185 589 -155 67 10 73 11 128 28 26 8 47 12 47 9 0 -4 4 -2 8 3 4 6
25 18 47 28 128 60 264 185 341 314 114 191 139 430 69 649 -14 41 -65 154
-75 164 -3 3 -18 24 -33 46 -105 156 -322 291 -510 319 -46 7 -195 14 -200 9z
m224 -249 c24 -9 52 -18 62 -20 40 -9 125 -70 187 -134 67 -69 124 -167 135
-230 3 -19 9 -39 12 -45 10 -15 12 -186 3 -215 -5 -15 -16 -50 -25 -80 -21
-68 -82 -164 -137 -217 -275 -262 -704 -192 -891 146 -14 25 -26 50 -27 55 -5
21 -8 31 -21 73 -11 39 -16 195 -6 232 2 8 7 29 12 45 19 73 67 159 130 234
27 31 136 111 152 111 7 0 13 4 13 9 0 8 117 45 170 54 49 9 188 -3 231 -18z"/>
</g>
</svg>
